<svg width="128" height="128" viewBox="0 0 128 128" xmlns="http://www.w3.org/2000/svg">
  <defs>
    <linearGradient id="g" x1="0" x2="1" y1="0" y2="1">
      <stop offset="0" stop-color="#0E6BA8"/>
      <stop offset="1" stop-color="#0A4D8C"/>
    </linearGradient>
  </defs>
  <rect rx="28" ry="28" width="128" height="128" fill="url(#g)"/>
  <!-- Steps made of droplets -->
  <path d="M36 84c0-10 12-18 12-26 0-6-5-10-12-10 7 0 12-4 12-10 0-8-12-14-12-26 12 12 24 18 24 26 0 6-5 10-12 10 7 0 12 4 12 10 0 8-12 16-24 26z" fill="white" opacity="0.9"/>
  <rect x="64" y="72" width="28" height="8" rx="4" fill="white" opacity="0.9"/>
  <rect x="72" y="56" width="20" height="8" rx="4" fill="white" opacity="0.9"/>
  <rect x="80" y="40" width="12" height="8" rx="4" fill="white" opacity="0.9"/>
</svg>
